<svg xmlns="http://www.w3.org/2000/svg" viewBox="0 0 240 240"><title>Chair</title><path d="M54.23,153.21H185.37v-8.49H54.23Zm32.69-25.48h67.27V100.64H86.92Zm-20.63-44h107V23.18h-107Zm122.39,44.08H170.76V100.64h6a13.08,13.08,0,0,0,13-13V19.28a13.08,13.08,0,0,0-13-13H62.38a13.07,13.07,0,0,0-13.07,13V87.64a13.06,13.06,0,0,0,13,13h7.65v27.09h-19a13.6,13.6,0,0,0-13.6,13.6v14.86a13.59,13.59,0,0,0,13.6,13.6h.93v55.37a8.5,8.5,0,1,0,17,0V170.32H170.76v54.92a8.5,8.5,0,0,0,17,0V169.85h1.35a13.57,13.57,0,0,0,13.58-13.58V141.41a13.57,13.57,0,0,0-13.58-13.6Z" fill-rule="evenodd" fill="#0072c6"/></svg>
